<?xml version="1.0" encoding="utf-8"?>
<svg style="transform: none; transform-origin: 50% 50% 0px; cursor: move; max-height: none; transition: none 0s ease 0s;" width="64" height="64" viewBox="0 0 9080 7239.64" xmlns="http://www.w3.org/2000/svg">
  <path fill="rgb(255,0,242)" d="M 455.176 3523.284 L 455.176 1092.474 L 2097.141 1092.474 L 3739.107 1092.474 L 3739.107 1554.094 L 3739.107 2015.715 L 2646.411 2015.715 L 1553.715 2015.715 L 1553.715 2489.021 L 1553.715 2962.328 L 2523.702 2962.328 L 3493.688 2962.328 L 3493.688 3412.262 L 3493.688 3862.195 L 2523.702 3862.195 L 1553.715 3862.195 L 1553.715 4446.525 L 1553.715 5030.854 L 2728.217 5030.854 L 3902.719 5030.854 L 3902.719 5492.474 L 3902.719 5954.094 L 2178.947 5954.094 L 455.176 5954.094 L 455.176 3523.284 Z" style=""/>
  <path fill="rgb(255,0,242)" d="M7780 4245 c0 -39 14 -46 30 -16 16 31 12 51 -10 51 -16 0 -20 -7 -20 -35z"/>
  <path fill="rgb(51,51,51)" d="M 6603.489 6034.732 C 5973.582 5978.636 5482.745 5767.109 5129.81 5396.644 C 4764.02 5014.493 4567.686 4524.825 4509.253 3850.509 C 4491.723 3650.668 4502.241 3210.084 4527.951 3044.134 C 4591.059 2633.935 4716.105 2298.53 4926.464 1980.655 C 5173.051 1606.684 5564.551 1305.17 6012.148 1141.558 C 6222.506 1065.595 6277.433 1051.571 6532.201 1008.331 C 6650.235 988.464 6733.21 983.789 6970.448 982.62 C 7278.974 981.452 7381.816 990.801 7630.74 1041.053 C 7815.388 1078.45 7953.29 1117.016 8115.733 1176.618 C 8240.78 1223.364 8428.934 1314.519 8456.982 1341.399 C 8467.499 1351.917 8451.138 1412.687 8379.85 1612.527 C 8329.598 1753.935 8260.647 1949.101 8226.756 2044.931 C 8191.696 2141.93 8163.648 2221.399 8162.48 2223.736 C 8161.311 2224.905 8121.577 2208.543 8073.662 2186.339 C 7698.522 2012.209 7322.214 1935.077 6924.87 1949.101 C 6740.222 1954.944 6636.211 1972.474 6487.792 2022.727 C 6318.336 2078.822 6209.651 2146.604 6062.4 2284.506 C 5854.379 2478.503 5724.658 2735.608 5659.213 3082.7 C 5642.852 3166.843 5639.346 3255.661 5638.177 3499.911 C 5638.177 3824.798 5647.526 3911.279 5703.622 4125.143 C 5846.198 4669.738 6217.832 4993.457 6783.462 5067.082 C 6916.689 5084.612 7315.202 5074.094 7467.128 5049.552 C 7776.822 4999.3 7955.627 4947.879 8158.974 4848.543 C 8203.383 4827.507 8240.78 4814.652 8244.286 4820.495 C 8246.623 4825.17 8294.538 4959.566 8350.634 5119.672 C 8405.561 5279.778 8471.005 5470.269 8496.716 5542.726 C 8522.426 5615.183 8539.956 5679.459 8536.45 5685.303 C 8527.101 5701.664 8442.958 5742.567 8320.248 5793.988 C 8050.288 5905.011 7751.112 5980.973 7437.911 6019.539 C 7255.6 6040.575 6771.776 6049.924 6603.489 6034.732 Z" style=""/>
</svg>