<?xml version="1.0" encoding="utf-8"?>
<svg style="transform-origin: 50% 50% 0px;" width="64" height="64" viewBox="0 0 9080 9080" xmlns="http://www.w3.org/2000/svg">
  <rect x="0" width="9072.459" height="9080" y="0" rx="1856.613" ry="1856.613" style="fill: rgb(255, 255, 255);"/>
  <path fill="rgb(255,0,242)" d="M 841.971 4271.217 L 841.971 2170.249 L 2261.134 2170.249 L 3680.299 2170.249 L 3680.299 2569.231 L 3680.299 2968.214 L 2735.873 2968.214 L 1791.447 2968.214 L 1791.447 3377.296 L 1791.447 3786.379 L 2629.814 3786.379 L 3468.181 3786.379 L 3468.181 4175.26 L 3468.181 4564.141 L 2629.814 4564.141 L 1791.447 4564.141 L 1791.447 5069.182 L 1791.447 5574.222 L 2806.578 5574.222 L 3821.71 5574.222 L 3821.71 5973.204 L 3821.71 6372.186 L 2331.84 6372.186 L 841.971 6372.186 L 841.971 4271.217 Z" style=""/>
  <path fill="rgb(255,0,242)" d="M7780 4245 c0 -39 14 -46 30 -16 16 31 12 51 -10 51 -16 0 -20 -7 -20 -35z"/>
  <path fill="rgb(51,51,51)" d="M 6089.145 6441.882 C 5544.711 6393.398 5120.477 6210.573 4815.432 5890.377 C 4499.277 5560.081 4329.584 5136.857 4279.08 4554.041 C 4263.929 4381.316 4273.019 4000.516 4295.241 3857.084 C 4349.785 3502.546 4457.864 3212.653 4639.679 2937.911 C 4852.806 2614.685 5191.182 2354.084 5578.044 2212.673 C 5759.858 2147.017 5807.332 2134.896 6027.53 2097.524 C 6129.548 2080.352 6201.264 2076.312 6406.31 2075.301 C 6672.972 2074.292 6761.859 2082.372 6977.006 2125.805 C 7136.599 2158.128 7255.788 2191.461 7396.189 2242.975 C 7504.268 2283.378 7666.891 2362.164 7691.133 2385.397 C 7700.223 2394.488 7686.082 2447.012 7624.468 2619.735 C 7581.034 2741.955 7521.44 2910.639 7492.147 2993.465 C 7461.845 3077.302 7437.603 3145.988 7436.593 3148.008 C 7435.583 3149.018 7401.24 3134.876 7359.827 3115.685 C 7035.59 2965.183 6710.344 2898.517 6366.917 2910.639 C 6207.324 2915.689 6117.427 2930.84 5989.147 2974.274 C 5842.685 3022.757 5748.747 3081.342 5621.477 3200.532 C 5441.683 3368.205 5329.564 3590.423 5272.999 3890.417 C 5258.859 3963.143 5255.828 4039.909 5254.818 4251.016 C 5254.818 4531.818 5262.898 4606.565 5311.383 4791.409 C 5434.612 5262.107 5755.818 5541.9 6244.697 5605.534 C 6359.846 5620.686 6704.284 5611.595 6835.595 5590.383 C 7103.266 5546.95 7257.808 5502.506 7433.563 5416.649 C 7471.946 5398.468 7504.268 5387.357 7507.299 5392.407 C 7509.318 5396.448 7550.732 5512.607 7599.216 5650.988 C 7646.69 5789.369 7703.254 5954.012 7725.476 6016.637 C 7747.697 6079.262 7762.849 6134.817 7759.818 6139.868 C 7751.738 6154.009 7679.012 6189.361 7572.953 6233.805 C 7339.625 6329.763 7081.044 6395.418 6810.342 6428.75 C 6652.769 6446.932 6234.597 6455.012 6089.145 6441.882 Z" style=""/>
</svg>